<svg baseProfile="tiny" height="400" version="1.2" viewBox="0 0 400 400" width="400" xmlns="http://www.w3.org/2000/svg" xmlns:xlink="http://www.w3.org/1999/xlink"><defs><g class="white pawn" id="white-pawn"><path d="M22 9c-2.21 0-4 1.79-4 4 0 .89.29 1.71.78 2.38-1.95 1.12-3.28 3.21-3.28 5.62 0 2.03.94 3.84 2.41 5.03-3 1.06-7.41 5.55-7.41 13.47h23c0-7.92-4.41-12.41-7.41-13.47 1.47-1.19 2.41-3 2.41-5.03 0-2.41-1.33-4.5-3.28-5.62.49-.67.78-1.49.78-2.38 0-2.21-1.79-4-4-4z" fill="#fff" stroke="#000" stroke-linecap="round" stroke-width="1.5"/></g><g class="white rook" fill="#fff" fill-rule="evenodd" id="white-rook" stroke="#000" stroke-linecap="round" stroke-linejoin="round" stroke-width="1.5"><path d="M9 39h27v-3H9v3zM12 36v-4h21v4H12zM11 14V9h4v2h5V9h5v2h5V9h4v5" stroke-linecap="butt"/><path d="M34 14l-3 3H14l-3-3"/><path d="M31 17v12.5H14V17" stroke-linecap="butt" stroke-linejoin="miter"/><path d="M31 29.5l1.5 2.5h-20l1.5-2.5"/><path d="M11 14h23" fill="#fff"/></g><g class="white queen" fill="#fff" fill-rule="evenodd" id="white-queen" stroke="#000" stroke-linecap="round" stroke-linejoin="round" stroke-width="1.5"><path d="M8 12a2 2 0 1 1-4 0 2 2 0 1 1 4 0zM24.5 7.5a2 2 0 1 1-4 0 2 2 0 1 1 4 0zM41 12a2 2 0 1 1-4 0 2 2 0 1 1 4 0zM16 8.5a2 2 0 1 1-4 0 2 2 0 1 1 4 0zM33 9a2 2 0 1 1-4 0 2 2 0 1 1 4 0z"/><path d="M9 26c8.5-1.5 21-1.5 27 0l2-12-7 11V11l-5.5 13.5-3-15-3 15-5.5-14V25L7 14l2 12zM9 26c0 2 1.5 2 2.5 4 1 1.5 1 1 .5 3.5-1.5 1-1.5 2.5-1.5 2.5-1.5 1.5.5 2.5.5 2.5 6.5 1 16.5 1 23 0 0 0 1.5-1 0-2.5 0 0 .5-1.5-1-2.5-.5-2.5-.5-2 .5-3.5 1-2 2.5-2 2.5-4-8.5-1.5-18.5-1.5-27 0z" stroke-linecap="butt"/><path d="M11.5 30c3.5-1 18.5-1 22 0M12 33.5c6-1 15-1 21 0" fill="#fff"/></g><g class="black bishop" fill="none" fill-rule="evenodd" id="black-bishop" stroke="#000" stroke-linecap="round" stroke-linejoin="round" stroke-width="1.5"><path d="M9 36c3.39-.97 10.11.43 13.5-2 3.39 2.43 10.11 1.03 13.5 2 0 0 1.65.54 3 2-.68.97-1.65.99-3 .5-3.39-.97-10.11.46-13.5-1-3.39 1.46-10.11.03-13.5 1-1.354.49-2.323.47-3-.5 1.354-1.94 3-2 3-2zm6-4c2.5 2.5 12.5 2.5 15 0 .5-1.5 0-2 0-2 0-2.5-2.5-4-2.5-4 5.5-1.5 6-11.5-5-15.5-11 4-10.5 14-5 15.5 0 0-2.5 1.5-2.5 4 0 0-.5.5 0 2zM25 8a2.5 2.5 0 1 1-5 0 2.5 2.5 0 1 1 5 0z" fill="#000" stroke-linecap="butt"/><path d="M17.5 26h10M15 30h15m-7.5-14.5v5M20 18h5" stroke="#fff" stroke-linejoin="miter"/></g></defs><rect class="square dark a1" fill="#DDDDDD" height="45" stroke="none" width="45" x="20" y="335"/><rect class="square light b1" fill="#FFFFFF" height="45" stroke="none" width="45" x="65" y="335"/><rect class="square dark c1" fill="#DDDDDD" height="45" stroke="none" width="45" x="110" y="335"/><rect class="square light d1" fill="#FFFFFF" height="45" stroke="none" width="45" x="155" y="335"/><rect class="square dark e1" fill="#DDDDDD" height="45" stroke="none" width="45" x="200" y="335"/><rect class="square light f1" fill="#FFFFFF" height="45" stroke="none" width="45" x="245" y="335"/><rect class="square dark g1" fill="#DDDDDD" height="45" stroke="none" width="45" x="290" y="335"/><rect class="square light h1" fill="#FFFFFF" height="45" stroke="none" width="45" x="335" y="335"/><rect class="square light a2" fill="#FFFFFF" height="45" stroke="none" width="45" x="20" y="290"/><rect class="square dark b2" fill="#DDDDDD" height="45" stroke="none" width="45" x="65" y="290"/><rect class="square light c2" fill="#FFFFFF" height="45" stroke="none" width="45" x="110" y="290"/><rect class="square dark d2" fill="#DDDDDD" height="45" stroke="none" width="45" x="155" y="290"/><rect class="square light e2" fill="#FFFFFF" height="45" stroke="none" width="45" x="200" y="290"/><rect class="square dark f2" fill="#DDDDDD" height="45" stroke="none" width="45" x="245" y="290"/><rect class="square light g2" fill="#FFFFFF" height="45" stroke="none" width="45" x="290" y="290"/><rect class="square dark h2" fill="#DDDDDD" height="45" stroke="none" width="45" x="335" y="290"/><rect class="square dark a3" fill="#DDDDDD" height="45" stroke="none" width="45" x="20" y="245"/><rect class="square light b3" fill="#FFFFFF" height="45" stroke="none" width="45" x="65" y="245"/><rect class="square dark c3" fill="#DDDDDD" height="45" stroke="none" width="45" x="110" y="245"/><rect class="square light d3" fill="#FFFFFF" height="45" stroke="none" width="45" x="155" y="245"/><rect class="square dark e3" fill="#DDDDDD" height="45" stroke="none" width="45" x="200" y="245"/><rect class="square light f3" fill="#FFFFFF" height="45" stroke="none" width="45" x="245" y="245"/><rect class="square dark g3" fill="#DDDDDD" height="45" stroke="none" width="45" x="290" y="245"/><rect class="square light h3" fill="#FFFFFF" height="45" stroke="none" width="45" x="335" y="245"/><rect class="square light a4" fill="#FFFFFF" height="45" stroke="none" width="45" x="20" y="200"/><rect class="square dark b4" fill="#DDDDDD" height="45" stroke="none" width="45" x="65" y="200"/><rect class="square light c4" fill="#FFFFFF" height="45" stroke="none" width="45" x="110" y="200"/><rect class="square dark d4" fill="#DDDDDD" height="45" stroke="none" width="45" x="155" y="200"/><rect class="square light e4" fill="#FFFFFF" height="45" stroke="none" width="45" x="200" y="200"/><rect class="square dark f4" fill="#DDDDDD" height="45" stroke="none" width="45" x="245" y="200"/><rect class="square light g4" fill="#FFFFFF" height="45" stroke="none" width="45" x="290" y="200"/><rect class="square dark h4" fill="#DDDDDD" height="45" stroke="none" width="45" x="335" y="200"/><rect class="square dark a5" fill="#DDDDDD" height="45" stroke="none" width="45" x="20" y="155"/><rect class="square light b5" fill="#FFFFFF" height="45" stroke="none" width="45" x="65" y="155"/><rect class="square dark c5" fill="#DDDDDD" height="45" stroke="none" width="45" x="110" y="155"/><rect class="square light d5" fill="#FFFFFF" height="45" stroke="none" width="45" x="155" y="155"/><rect class="square dark e5" fill="#DDDDDD" height="45" stroke="none" width="45" x="200" y="155"/><rect class="square light f5" fill="#FFFFFF" height="45" stroke="none" width="45" x="245" y="155"/><rect class="square dark g5" fill="#DDDDDD" height="45" stroke="none" width="45" x="290" y="155"/><rect class="square light h5" fill="#FFFFFF" height="45" stroke="none" width="45" x="335" y="155"/><rect class="square light a6" fill="#FFFFFF" height="45" stroke="none" width="45" x="20" y="110"/><rect class="square dark b6" fill="#DDDDDD" height="45" stroke="none" width="45" x="65" y="110"/><rect class="square light c6" fill="#FFFFFF" height="45" stroke="none" width="45" x="110" y="110"/><rect class="square dark d6" fill="#DDDDDD" height="45" stroke="none" width="45" x="155" y="110"/><rect class="square light e6" fill="#FFFFFF" height="45" stroke="none" width="45" x="200" y="110"/><rect class="square dark f6" fill="#DDDDDD" height="45" stroke="none" width="45" x="245" y="110"/><rect class="square light g6" fill="#FFFFFF" height="45" stroke="none" width="45" x="290" y="110"/><rect class="square dark h6" fill="#DDDDDD" height="45" stroke="none" width="45" x="335" y="110"/><rect class="square dark a7" fill="#DDDDDD" height="45" stroke="none" width="45" x="20" y="65"/><rect class="square light b7" fill="#FFFFFF" height="45" stroke="none" width="45" x="65" y="65"/><rect class="square dark c7" fill="#DDDDDD" height="45" stroke="none" width="45" x="110" y="65"/><rect class="square light d7" fill="#FFFFFF" height="45" stroke="none" width="45" x="155" y="65"/><rect class="square dark e7" fill="#DDDDDD" height="45" stroke="none" width="45" x="200" y="65"/><rect class="square light f7" fill="#FFFFFF" height="45" stroke="none" width="45" x="245" y="65"/><rect class="square dark g7" fill="#DDDDDD" height="45" stroke="none" width="45" x="290" y="65"/><rect class="square light h7" fill="#FFFFFF" height="45" stroke="none" width="45" x="335" y="65"/><rect class="square light a8" fill="#FFFFFF" height="45" stroke="none" width="45" x="20" y="20"/><rect class="square dark b8" fill="#DDDDDD" height="45" stroke="none" width="45" x="65" y="20"/><rect class="square light c8" fill="#FFFFFF" height="45" stroke="none" width="45" x="110" y="20"/><rect class="square dark d8" fill="#DDDDDD" height="45" stroke="none" width="45" x="155" y="20"/><rect class="square light e8" fill="#FFFFFF" height="45" stroke="none" width="45" x="200" y="20"/><rect class="square dark f8" fill="#DDDDDD" height="45" stroke="none" width="45" x="245" y="20"/><rect class="square light g8" fill="#FFFFFF" height="45" stroke="none" width="45" x="290" y="20"/><rect class="square dark h8" fill="#DDDDDD" height="45" stroke="none" width="45" x="335" y="20"/><line class="arrow" opacity="0.3" stroke="#808000" stroke-linecap="butt" stroke-width="27.5" x1="87.5" x2="285.45316561961454" y1="267.5" y2="69.54683438038543"/><polygon class="arrow" fill="#808000" opacity="0.3" points="309.3180194846605,45.68198051533946 273.5207386870915,57.61440744786245 297.38559255213755,81.47926131290842"/><line class="arrow" opacity="0.3" stroke="#808000" stroke-linecap="butt" stroke-width="27.5" x1="87.5" x2="240.45316561961457" y1="267.5" y2="114.54683438038543"/><polygon class="arrow" fill="#808000" opacity="0.3" points="264.3180194846605,90.68198051533946 228.52073868709158,102.61440744786245 252.38559255213755,126.47926131290842"/><line class="arrow" opacity="0.3" stroke="#808000" stroke-linecap="butt" stroke-width="27.5" x1="87.5" x2="195.45316561961457" y1="267.5" y2="159.54683438038543"/><polygon class="arrow" fill="#808000" opacity="0.3" points="219.31801948466054,135.68198051533946 183.52073868709158,147.61440744786245 207.38559255213755,171.47926131290842"/><line class="arrow" opacity="0.3" stroke="#808000" stroke-linecap="butt" stroke-width="27.5" x1="87.5" x2="150.45316561961457" y1="267.5" y2="204.54683438038543"/><polygon class="arrow" fill="#808000" opacity="0.3" points="174.31801948466054,180.68198051533946 138.52073868709158,192.61440744786245 162.38559255213755,216.47926131290842"/><line class="arrow" opacity="0.3" stroke="#808000" stroke-linecap="butt" stroke-width="27.5" x1="87.5" x2="105.45316561961457" y1="267.5" y2="249.54683438038543"/><polygon class="arrow" fill="#808000" opacity="0.3" points="129.31801948466054,225.68198051533946 93.52073868709158,237.61440744786245 117.38559255213755,261.4792613129084"/><line class="arrow" opacity="0.3" stroke="#808000" stroke-linecap="butt" stroke-width="27.5" x1="87.5" x2="69.54683438038543" y1="267.5" y2="249.54683438038543"/><polygon class="arrow" fill="#808000" opacity="0.3" points="45.68198051533946,225.68198051533946 57.61440744786245,261.4792613129084 81.47926131290842,237.61440744786245"/><line class="arrow" opacity="0.3" stroke="#808000" stroke-linecap="butt" stroke-width="27.5" x1="87.5" x2="105.45316561961457" y1="267.5" y2="285.45316561961454"/><polygon class="arrow" fill="#808000" opacity="0.3" points="129.31801948466054,309.3180194846605 117.38559255213755,273.5207386870915 93.52073868709158,297.38559255213755"/><line class="arrow" opacity="0.3" stroke="#808000" stroke-linecap="butt" stroke-width="27.5" x1="87.5" x2="69.54683438038543" y1="267.5" y2="285.45316561961454"/><polygon class="arrow" fill="#808000" opacity="0.3" points="45.68198051533946,309.3180194846605 81.47926131290842,297.38559255213755 57.61440744786245,273.5207386870915"/><line class="arrow" opacity="0.3" stroke="#808000" stroke-linecap="butt" stroke-width="27.5" x1="87.5" x2="150.45316561961457" y1="267.5" y2="330.45316561961454"/><polygon class="arrow" fill="#808000" opacity="0.3" points="174.31801948466054,354.3180194846605 162.38559255213755,318.5207386870915 138.52073868709158,342.38559255213755"/><line class="arrow" opacity="0.3" stroke="#808000" stroke-linecap="butt" stroke-width="27.5" x1="312.5" x2="249.54683438038543" y1="357.5" y2="294.54683438038546"/><polygon class="arrow" fill="#808000" opacity="0.3" points="225.68198051533946,270.6819805153395 237.61440744786245,306.4792613129085 261.4792613129084,282.61440744786245"/><line class="arrow" opacity="0.3" stroke="#808000" stroke-linecap="butt" stroke-width="27.5" x1="312.5" x2="330.45316561961454" y1="357.5" y2="339.54683438038546"/><polygon class="arrow" fill="#808000" opacity="0.3" points="354.3180194846605,315.6819805153395 318.5207386870915,327.61440744786245 342.38559255213755,351.4792613129085"/><line class="arrow" opacity="0.3" stroke="#808000" stroke-linecap="butt" stroke-width="27.5" x1="312.5" x2="294.54683438038546" y1="357.5" y2="339.54683438038546"/><polygon class="arrow" fill="#808000" opacity="0.3" points="270.6819805153395,315.6819805153395 282.61440744786245,351.4792613129085 306.4792613129085,327.61440744786245"/><use transform="translate(290, 335)" xlink:href="#black-bishop"/><use transform="translate(65, 245)" xlink:href="#black-bishop"/><use transform="translate(200, 245)" xlink:href="#white-rook"/><use transform="translate(65, 200)" xlink:href="#white-queen"/><use transform="translate(155, 200)" xlink:href="#white-pawn"/></svg>