<svg baseProfile="tiny" height="400" version="1.2" viewBox="0 0 400 400" width="400" xmlns="http://www.w3.org/2000/svg" xmlns:xlink="http://www.w3.org/1999/xlink"><defs/><rect class="square dark a1" fill="#DDDDDD" height="45" stroke="none" width="45" x="20" y="335"/><rect class="square light b1" fill="#FFFFFF" height="45" stroke="none" width="45" x="65" y="335"/><rect class="square dark c1" fill="#DDDDDD" height="45" stroke="none" width="45" x="110" y="335"/><rect class="square light d1" fill="#FFFFFF" height="45" stroke="none" width="45" x="155" y="335"/><rect class="square dark e1" fill="#DDDDDD" height="45" stroke="none" width="45" x="200" y="335"/><rect class="square light f1" fill="#FFFFFF" height="45" stroke="none" width="45" x="245" y="335"/><rect class="square dark g1" fill="#DDDDDD" height="45" stroke="none" width="45" x="290" y="335"/><rect class="square light h1" fill="#FFFFFF" height="45" stroke="none" width="45" x="335" y="335"/><rect class="square light a2" fill="#FFFFFF" height="45" stroke="none" width="45" x="20" y="290"/><rect class="square dark b2" fill="#DDDDDD" height="45" stroke="none" width="45" x="65" y="290"/><rect class="square light c2" fill="#FFFFFF" height="45" stroke="none" width="45" x="110" y="290"/><rect class="square dark d2" fill="#DDDDDD" height="45" stroke="none" width="45" x="155" y="290"/><rect class="square light e2" fill="#FFFFFF" height="45" stroke="none" width="45" x="200" y="290"/><rect class="square dark f2" fill="#DDDDDD" height="45" stroke="none" width="45" x="245" y="290"/><rect class="square light g2" fill="#FFFFFF" height="45" stroke="none" width="45" x="290" y="290"/><rect class="square dark h2" fill="#DDDDDD" height="45" stroke="none" width="45" x="335" y="290"/><rect class="square dark a3" fill="#DDDDDD" height="45" stroke="none" width="45" x="20" y="245"/><rect class="square light b3" fill="#FFFFFF" height="45" stroke="none" width="45" x="65" y="245"/><rect class="square dark c3" fill="#DDDDDD" height="45" stroke="none" width="45" x="110" y="245"/><rect class="square light d3" fill="#FFFFFF" height="45" stroke="none" width="45" x="155" y="245"/><rect class="square dark e3" fill="#DDDDDD" height="45" stroke="none" width="45" x="200" y="245"/><rect class="square light f3" fill="#FFFFFF" height="45" stroke="none" width="45" x="245" y="245"/><rect class="square dark g3" fill="#DDDDDD" height="45" stroke="none" width="45" x="290" y="245"/><rect class="square light h3" fill="#FFFFFF" height="45" stroke="none" width="45" x="335" y="245"/><rect class="square light a4" fill="#FFFFFF" height="45" stroke="none" width="45" x="20" y="200"/><rect class="square dark b4" fill="#DDDDDD" height="45" stroke="none" width="45" x="65" y="200"/><rect class="square light c4" fill="#FFFFFF" height="45" stroke="none" width="45" x="110" y="200"/><rect class="square dark d4" fill="#DDDDDD" height="45" stroke="none" width="45" x="155" y="200"/><rect class="square light e4" fill="#FFFFFF" height="45" stroke="none" width="45" x="200" y="200"/><rect class="square dark f4" fill="#DDDDDD" height="45" stroke="none" width="45" x="245" y="200"/><rect class="square light g4" fill="#FFFFFF" height="45" stroke="none" width="45" x="290" y="200"/><rect class="square dark h4" fill="#DDDDDD" height="45" stroke="none" width="45" x="335" y="200"/><rect class="square dark a5" fill="#DDDDDD" height="45" stroke="none" width="45" x="20" y="155"/><rect class="square light b5" fill="#FFFFFF" height="45" stroke="none" width="45" x="65" y="155"/><rect class="square dark c5" fill="#DDDDDD" height="45" stroke="none" width="45" x="110" y="155"/><rect class="square light d5" fill="#FFFFFF" height="45" stroke="none" width="45" x="155" y="155"/><rect class="square dark e5" fill="#DDDDDD" height="45" stroke="none" width="45" x="200" y="155"/><rect class="square light f5" fill="#FFFFFF" height="45" stroke="none" width="45" x="245" y="155"/><rect class="square dark g5" fill="#DDDDDD" height="45" stroke="none" width="45" x="290" y="155"/><rect class="square light h5" fill="#FFFFFF" height="45" stroke="none" width="45" x="335" y="155"/><rect class="square light a6" fill="#FFFFFF" height="45" stroke="none" width="45" x="20" y="110"/><rect class="square dark b6" fill="#DDDDDD" height="45" stroke="none" width="45" x="65" y="110"/><rect class="square light c6" fill="#FFFFFF" height="45" stroke="none" width="45" x="110" y="110"/><rect class="square dark d6" fill="#DDDDDD" height="45" stroke="none" width="45" x="155" y="110"/><rect class="square light e6" fill="#FFFFFF" height="45" stroke="none" width="45" x="200" y="110"/><rect class="square dark f6" fill="#DDDDDD" height="45" stroke="none" width="45" x="245" y="110"/><rect class="square light g6" fill="#FFFFFF" height="45" stroke="none" width="45" x="290" y="110"/><rect class="square dark h6" fill="#DDDDDD" height="45" stroke="none" width="45" x="335" y="110"/><rect class="square dark a7" fill="#DDDDDD" height="45" stroke="none" width="45" x="20" y="65"/><rect class="square light b7" fill="#FFFFFF" height="45" stroke="none" width="45" x="65" y="65"/><rect class="square dark c7" fill="#DDDDDD" height="45" stroke="none" width="45" x="110" y="65"/><rect class="square light d7" fill="#FFFFFF" height="45" stroke="none" width="45" x="155" y="65"/><rect class="square dark e7" fill="#DDDDDD" height="45" stroke="none" width="45" x="200" y="65"/><rect class="square light f7" fill="#FFFFFF" height="45" stroke="none" width="45" x="245" y="65"/><rect class="square dark g7" fill="#DDDDDD" height="45" stroke="none" width="45" x="290" y="65"/><rect class="square light h7" fill="#FFFFFF" height="45" stroke="none" width="45" x="335" y="65"/><rect class="square light a8" fill="#FFFFFF" height="45" stroke="none" width="45" x="20" y="20"/><rect class="square dark b8" fill="#DDDDDD" height="45" stroke="none" width="45" x="65" y="20"/><rect class="square light c8" fill="#FFFFFF" height="45" stroke="none" width="45" x="110" y="20"/><rect class="square dark d8" fill="#DDDDDD" height="45" stroke="none" width="45" x="155" y="20"/><rect class="square light e8" fill="#FFFFFF" height="45" stroke="none" width="45" x="200" y="20"/><rect class="square dark f8" fill="#DDDDDD" height="45" stroke="none" width="45" x="245" y="20"/><rect class="square light g8" fill="#FFFFFF" height="45" stroke="none" width="45" x="290" y="20"/><rect class="square dark h8" fill="#DDDDDD" height="45" stroke="none" width="45" x="335" y="20"/></svg>