<svg baseProfile="tiny" height="400" version="1.2" viewBox="0 0 400 400" width="400" xmlns="http://www.w3.org/2000/svg" xmlns:xlink="http://www.w3.org/1999/xlink"><defs><g class="white knight" fill="#fff" fill-rule="evenodd" id="white-knight" stroke="#000" stroke-linecap="round" stroke-linejoin="round" stroke-width="1.5"><path d="M 22,10 C 32.5,11 38.5,18 38,39 L 15,39 C 15,30 25,32.5 23,18" style="fill:#ffffff; stroke:#000000;"/><path d="M 24,18 C 24.38,20.91 18.45,25.37 16,27 C 13,29 13.18,31.34 11,31 C 9.958,30.06 12.41,27.96 11,28 C 10,28 11.19,29.23 10,30 C 9,30 5.997,31 6,26 C 6,24 12,14 12,14 C 12,14 13.89,12.1 14,10.5 C 13.27,9.506 13.5,8.5 13.5,7.5 C 14.5,6.5 16.5,10 16.5,10 L 18.5,10 C 18.5,10 19.28,8.008 21,7 C 22,7 22,10 22,10" style="fill:#ffffff; stroke:#000000;"/><path d="M 9.5 25.5 A 0.5 0.5 0 1 1 8.5,25.5 A 0.5 0.5 0 1 1 9.5 25.5 z" style="fill:#000000; stroke:#000000;"/><path d="M 15 15.5 A 0.5 1.5 0 1 1 14,15.5 A 0.5 1.5 0 1 1 15 15.5 z" style="fill:#000000; stroke:#000000;" transform="matrix(0.866,0.5,-0.5,0.866,9.693,-5.173)"/></g><g class="black bishop" fill="none" fill-rule="evenodd" id="black-bishop" stroke="#000" stroke-linecap="round" stroke-linejoin="round" stroke-width="1.5"><path d="M9 36c3.39-.97 10.11.43 13.5-2 3.39 2.43 10.11 1.03 13.5 2 0 0 1.65.54 3 2-.68.97-1.65.99-3 .5-3.39-.97-10.11.46-13.5-1-3.39 1.46-10.11.03-13.5 1-1.354.49-2.323.47-3-.5 1.354-1.94 3-2 3-2zm6-4c2.5 2.5 12.5 2.5 15 0 .5-1.5 0-2 0-2 0-2.5-2.5-4-2.5-4 5.5-1.5 6-11.5-5-15.5-11 4-10.5 14-5 15.5 0 0-2.5 1.5-2.5 4 0 0-.5.5 0 2zM25 8a2.5 2.5 0 1 1-5 0 2.5 2.5 0 1 1 5 0z" fill="#000" stroke-linecap="butt"/><path d="M17.5 26h10M15 30h15m-7.5-14.5v5M20 18h5" stroke="#fff" stroke-linejoin="miter"/></g><g class="black rook" fill="#000" fill-rule="evenodd" id="black-rook" stroke="#000" stroke-linecap="round" stroke-linejoin="round" stroke-width="1.5"><path d="M9 39h27v-3H9v3zM12.5 32l1.5-2.5h17l1.5 2.5h-20zM12 36v-4h21v4H12z" stroke-linecap="butt"/><path d="M14 29.5v-13h17v13H14z" stroke-linecap="butt" stroke-linejoin="miter"/><path d="M14 16.5L11 14h23l-3 2.5H14zM11 14V9h4v2h5V9h5v2h5V9h4v5H11z" stroke-linecap="butt"/><path d="M12 35.5h21M13 31.5h19M14 29.5h17M14 16.5h17M11 14h23" fill="none" stroke="#fff" stroke-linejoin="miter" stroke-width="1"/></g><g class="black queen" fill="#000" fill-rule="evenodd" id="black-queen" stroke="#000" stroke-linecap="round" stroke-linejoin="round" stroke-width="1.5"><g fill="#000" stroke="none"><circle cx="6" cy="12" r="2.75"/><circle cx="14" cy="9" r="2.75"/><circle cx="22.5" cy="8" r="2.75"/><circle cx="31" cy="9" r="2.75"/><circle cx="39" cy="12" r="2.75"/></g><path d="M9 26c8.5-1.5 21-1.5 27 0l2.5-12.5L31 25l-.3-14.1-5.2 13.6-3-14.5-3 14.5-5.2-13.6L14 25 6.5 13.5 9 26zM9 26c0 2 1.5 2 2.5 4 1 1.5 1 1 .5 3.5-1.5 1-1.5 2.5-1.5 2.5-1.5 1.5.5 2.5.5 2.5 6.5 1 16.5 1 23 0 0 0 1.5-1 0-2.5 0 0 .5-1.5-1-2.5-.5-2.5-.5-2 .5-3.5 1-2 2.5-2 2.5-4-8.5-1.5-18.5-1.5-27 0z" stroke-linecap="butt"/><path d="M11 38.5a35 35 1 0 0 23 0" fill="none" stroke-linecap="butt"/><path d="M11 29a35 35 1 0 1 23 0M12.5 31.5h20M11.5 34.5a35 35 1 0 0 22 0M10.5 37.5a35 35 1 0 0 24 0" fill="none" stroke="#fff"/></g><g class="black king" fill="none" fill-rule="evenodd" id="black-king" stroke="#000" stroke-linecap="round" stroke-linejoin="round" stroke-width="1.5"><path d="M22.5 11.63V6" stroke-linejoin="miter"/><path d="M22.5 25s4.5-7.5 3-10.5c0 0-1-2.5-3-2.5s-3 2.5-3 2.5c-1.5 3 3 10.5 3 10.5" fill="#000" stroke-linecap="butt" stroke-linejoin="miter"/><path d="M11.5 37c5.5 3.5 15.5 3.5 21 0v-7s9-4.5 6-10.5c-4-6.5-13.5-3.5-16 4V27v-3.5c-3.5-7.5-13-10.5-16-4-3 6 5 10 5 10V37z" fill="#000"/><path d="M20 8h5" stroke-linejoin="miter"/><path d="M32 29.5s8.5-4 6.03-9.65C34.15 14 25 18 22.5 24.5l.01 2.1-.01-2.1C20 18 9.906 14 6.997 19.85c-2.497 5.65 4.853 9 4.853 9M11.5 30c5.5-3 15.5-3 21 0m-21 3.5c5.5-3 15.5-3 21 0m-21 3.5c5.5-3 15.5-3 21 0" stroke="#fff"/></g></defs><rect class="square dark a1" fill="#DDDDDD" height="45" stroke="none" width="45" x="20" y="335"/><rect class="square light b1" fill="#FFFFFF" height="45" stroke="none" width="45" x="65" y="335"/><rect class="square dark c1" fill="#DDDDDD" height="45" stroke="none" width="45" x="110" y="335"/><rect class="square light d1" fill="#FFFFFF" height="45" stroke="none" width="45" x="155" y="335"/><rect class="square dark e1" fill="#DDDDDD" height="45" stroke="none" width="45" x="200" y="335"/><rect class="square light f1" fill="#FFFFFF" height="45" stroke="none" width="45" x="245" y="335"/><rect class="square dark g1" fill="#DDDDDD" height="45" stroke="none" width="45" x="290" y="335"/><rect class="square light h1" fill="#FFFFFF" height="45" stroke="none" width="45" x="335" y="335"/><rect class="square light a2" fill="#FFFFFF" height="45" stroke="none" width="45" x="20" y="290"/><rect class="square dark b2" fill="#DDDDDD" height="45" stroke="none" width="45" x="65" y="290"/><rect class="square light c2" fill="#FFFFFF" height="45" stroke="none" width="45" x="110" y="290"/><rect class="square dark d2" fill="#DDDDDD" height="45" stroke="none" width="45" x="155" y="290"/><rect class="square light e2" fill="#FFFFFF" height="45" stroke="none" width="45" x="200" y="290"/><rect class="square dark f2" fill="#DDDDDD" height="45" stroke="none" width="45" x="245" y="290"/><rect class="square light g2" fill="#FFFFFF" height="45" stroke="none" width="45" x="290" y="290"/><rect class="square dark h2" fill="#DDDDDD" height="45" stroke="none" width="45" x="335" y="290"/><rect class="square dark a3" fill="#DDDDDD" height="45" stroke="none" width="45" x="20" y="245"/><rect class="square light b3" fill="#FFFFFF" height="45" stroke="none" width="45" x="65" y="245"/><rect class="square dark c3" fill="#DDDDDD" height="45" stroke="none" width="45" x="110" y="245"/><rect class="square light d3" fill="#FFFFFF" height="45" stroke="none" width="45" x="155" y="245"/><rect class="square dark e3" fill="#DDDDDD" height="45" stroke="none" width="45" x="200" y="245"/><rect class="square light f3" fill="#FFFFFF" height="45" stroke="none" width="45" x="245" y="245"/><rect class="square dark g3" fill="#DDDDDD" height="45" stroke="none" width="45" x="290" y="245"/><rect class="square light h3" fill="#FFFFFF" height="45" stroke="none" width="45" x="335" y="245"/><rect class="square light a4" fill="#FFFFFF" height="45" stroke="none" width="45" x="20" y="200"/><rect class="square dark b4" fill="#DDDDDD" height="45" stroke="none" width="45" x="65" y="200"/><rect class="square light c4" fill="#FFFFFF" height="45" stroke="none" width="45" x="110" y="200"/><rect class="square dark d4" fill="#DDDDDD" height="45" stroke="none" width="45" x="155" y="200"/><rect class="square light e4" fill="#FFFFFF" height="45" stroke="none" width="45" x="200" y="200"/><rect class="square dark f4" fill="#DDDDDD" height="45" stroke="none" width="45" x="245" y="200"/><rect class="square light g4" fill="#FFFFFF" height="45" stroke="none" width="45" x="290" y="200"/><rect class="square dark h4" fill="#DDDDDD" height="45" stroke="none" width="45" x="335" y="200"/><rect class="square dark a5" fill="#DDDDDD" height="45" stroke="none" width="45" x="20" y="155"/><rect class="square light b5" fill="#FFFFFF" height="45" stroke="none" width="45" x="65" y="155"/><rect class="square dark c5" fill="#DDDDDD" height="45" stroke="none" width="45" x="110" y="155"/><rect class="square light d5" fill="#FFFFFF" height="45" stroke="none" width="45" x="155" y="155"/><rect class="square dark e5" fill="#DDDDDD" height="45" stroke="none" width="45" x="200" y="155"/><rect class="square light f5" fill="#FFFFFF" height="45" stroke="none" width="45" x="245" y="155"/><rect class="square dark g5" fill="#DDDDDD" height="45" stroke="none" width="45" x="290" y="155"/><rect class="square light h5" fill="#FFFFFF" height="45" stroke="none" width="45" x="335" y="155"/><rect class="square light a6" fill="#FFFFFF" height="45" stroke="none" width="45" x="20" y="110"/><rect class="square dark b6" fill="#DDDDDD" height="45" stroke="none" width="45" x="65" y="110"/><rect class="square light c6" fill="#FFFFFF" height="45" stroke="none" width="45" x="110" y="110"/><rect class="square dark d6" fill="#DDDDDD" height="45" stroke="none" width="45" x="155" y="110"/><rect class="square light e6" fill="#FFFFFF" height="45" stroke="none" width="45" x="200" y="110"/><rect class="square dark f6" fill="#DDDDDD" height="45" stroke="none" width="45" x="245" y="110"/><rect class="square light g6" fill="#FFFFFF" height="45" stroke="none" width="45" x="290" y="110"/><rect class="square dark h6" fill="#DDDDDD" height="45" stroke="none" width="45" x="335" y="110"/><rect class="square dark a7" fill="#DDDDDD" height="45" stroke="none" width="45" x="20" y="65"/><rect class="square light b7" fill="#FFFFFF" height="45" stroke="none" width="45" x="65" y="65"/><rect class="square dark c7" fill="#DDDDDD" height="45" stroke="none" width="45" x="110" y="65"/><rect class="square light d7" fill="#FFFFFF" height="45" stroke="none" width="45" x="155" y="65"/><rect class="square dark e7" fill="#DDDDDD" height="45" stroke="none" width="45" x="200" y="65"/><rect class="square light f7" fill="#FFFFFF" height="45" stroke="none" width="45" x="245" y="65"/><rect class="square dark g7" fill="#DDDDDD" height="45" stroke="none" width="45" x="290" y="65"/><rect class="square light h7" fill="#FFFFFF" height="45" stroke="none" width="45" x="335" y="65"/><rect class="square light a8" fill="#FFFFFF" height="45" stroke="none" width="45" x="20" y="20"/><rect class="square dark b8" fill="#DDDDDD" height="45" stroke="none" width="45" x="65" y="20"/><rect class="square light c8" fill="#FFFFFF" height="45" stroke="none" width="45" x="110" y="20"/><rect class="square dark d8" fill="#DDDDDD" height="45" stroke="none" width="45" x="155" y="20"/><rect class="square light e8" fill="#FFFFFF" height="45" stroke="none" width="45" x="200" y="20"/><rect class="square dark f8" fill="#DDDDDD" height="45" stroke="none" width="45" x="245" y="20"/><rect class="square light g8" fill="#FFFFFF" height="45" stroke="none" width="45" x="290" y="20"/><rect class="square dark h8" fill="#DDDDDD" height="45" stroke="none" width="45" x="335" y="20"/><use transform="translate(245, 245)" xlink:href="#white-knight"/><use transform="translate(110, 200)" xlink:href="#white-knight"/><use transform="translate(200, 200)" xlink:href="#black-rook"/><use transform="translate(245, 200)" xlink:href="#black-bishop"/><use transform="translate(290, 200)" xlink:href="#black-king"/><use transform="translate(290, 155)" xlink:href="#black-queen"/></svg>