<svg baseProfile="tiny" height="400" version="1.2" viewBox="0 0 400 400" width="400" xmlns="http://www.w3.org/2000/svg" xmlns:xlink="http://www.w3.org/1999/xlink"><defs><g class="white pawn" id="white-pawn"><path d="M22 9c-2.21 0-4 1.79-4 4 0 .89.29 1.71.78 2.38-1.95 1.12-3.28 3.21-3.28 5.62 0 2.03.94 3.84 2.41 5.03-3 1.06-7.41 5.55-7.41 13.47h23c0-7.92-4.41-12.41-7.41-13.47 1.47-1.19 2.41-3 2.41-5.03 0-2.41-1.33-4.5-3.28-5.62.49-.67.78-1.49.78-2.38 0-2.21-1.79-4-4-4z" fill="#fff" stroke="#000" stroke-linecap="round" stroke-width="1.5"/></g><g class="white rook" fill="#fff" fill-rule="evenodd" id="white-rook" stroke="#000" stroke-linecap="round" stroke-linejoin="round" stroke-width="1.5"><path d="M9 39h27v-3H9v3zM12 36v-4h21v4H12zM11 14V9h4v2h5V9h5v2h5V9h4v5" stroke-linecap="butt"/><path d="M34 14l-3 3H14l-3-3"/><path d="M31 17v12.5H14V17" stroke-linecap="butt" stroke-linejoin="miter"/><path d="M31 29.5l1.5 2.5h-20l1.5-2.5"/><path d="M11 14h23" fill="#fff"/></g><g class="white queen" fill="#fff" fill-rule="evenodd" id="white-queen" stroke="#000" stroke-linecap="round" stroke-linejoin="round" stroke-width="1.5"><path d="M8 12a2 2 0 1 1-4 0 2 2 0 1 1 4 0zM24.5 7.5a2 2 0 1 1-4 0 2 2 0 1 1 4 0zM41 12a2 2 0 1 1-4 0 2 2 0 1 1 4 0zM16 8.5a2 2 0 1 1-4 0 2 2 0 1 1 4 0zM33 9a2 2 0 1 1-4 0 2 2 0 1 1 4 0z"/><path d="M9 26c8.5-1.5 21-1.5 27 0l2-12-7 11V11l-5.5 13.5-3-15-3 15-5.5-14V25L7 14l2 12zM9 26c0 2 1.5 2 2.5 4 1 1.5 1 1 .5 3.5-1.5 1-1.5 2.5-1.5 2.5-1.5 1.5.5 2.5.5 2.5 6.5 1 16.5 1 23 0 0 0 1.5-1 0-2.5 0 0 .5-1.5-1-2.5-.5-2.5-.5-2 .5-3.5 1-2 2.5-2 2.5-4-8.5-1.5-18.5-1.5-27 0z" stroke-linecap="butt"/><path d="M11.5 30c3.5-1 18.5-1 22 0M12 33.5c6-1 15-1 21 0" fill="#fff"/></g><g class="white king" fill="#fff" fill-rule="evenodd" id="white-king" stroke="#000" stroke-linecap="round" stroke-linejoin="round" stroke-width="1.5"><path d="M22.5 11.63V6M20 8h5" stroke-linejoin="miter"/><path d="M22.5 25s4.5-7.5 3-10.5c0 0-1-2.5-3-2.5s-3 2.5-3 2.5c-1.5 3 3 10.5 3 10.5" fill="#fff" stroke-linecap="butt" stroke-linejoin="miter"/><path d="M11.5 37c5.5 3.5 15.5 3.5 21 0v-7s9-4.5 6-10.5c-4-6.5-13.5-3.5-16 4V27v-3.5c-3.5-7.5-13-10.5-16-4-3 6 5 10 5 10V37z" fill="#fff"/><path d="M11.5 30c5.5-3 15.5-3 21 0m-21 3.5c5.5-3 15.5-3 21 0m-21 3.5c5.5-3 15.5-3 21 0"/></g><g class="black queen" fill="#000" fill-rule="evenodd" id="black-queen" stroke="#000" stroke-linecap="round" stroke-linejoin="round" stroke-width="1.5"><g fill="#000" stroke="none"><circle cx="6" cy="12" r="2.75"/><circle cx="14" cy="9" r="2.75"/><circle cx="22.5" cy="8" r="2.75"/><circle cx="31" cy="9" r="2.75"/><circle cx="39" cy="12" r="2.75"/></g><path d="M9 26c8.5-1.5 21-1.5 27 0l2.5-12.5L31 25l-.3-14.1-5.2 13.6-3-14.5-3 14.5-5.2-13.6L14 25 6.5 13.5 9 26zM9 26c0 2 1.5 2 2.5 4 1 1.5 1 1 .5 3.5-1.5 1-1.5 2.5-1.5 2.5-1.5 1.5.5 2.5.5 2.5 6.5 1 16.5 1 23 0 0 0 1.5-1 0-2.5 0 0 .5-1.5-1-2.5-.5-2.5-.5-2 .5-3.5 1-2 2.5-2 2.5-4-8.5-1.5-18.5-1.5-27 0z" stroke-linecap="butt"/><path d="M11 38.5a35 35 1 0 0 23 0" fill="none" stroke-linecap="butt"/><path d="M11 29a35 35 1 0 1 23 0M12.5 31.5h20M11.5 34.5a35 35 1 0 0 22 0M10.5 37.5a35 35 1 0 0 24 0" fill="none" stroke="#fff"/></g></defs><rect class="square dark a1" fill="#DDDDDD" height="45" stroke="none" width="45" x="20" y="335"/><rect class="square light b1" fill="#FFFFFF" height="45" stroke="none" width="45" x="65" y="335"/><rect class="square dark c1" fill="#DDDDDD" height="45" stroke="none" width="45" x="110" y="335"/><rect class="square light d1" fill="#FFFFFF" height="45" stroke="none" width="45" x="155" y="335"/><rect class="square dark e1" fill="#DDDDDD" height="45" stroke="none" width="45" x="200" y="335"/><rect class="square light f1" fill="#FFFFFF" height="45" stroke="none" width="45" x="245" y="335"/><rect class="square dark g1" fill="#DDDDDD" height="45" stroke="none" width="45" x="290" y="335"/><rect class="square light h1" fill="#FFFFFF" height="45" stroke="none" width="45" x="335" y="335"/><rect class="square light a2" fill="#FFFFFF" height="45" stroke="none" width="45" x="20" y="290"/><rect class="square dark b2" fill="#DDDDDD" height="45" stroke="none" width="45" x="65" y="290"/><rect class="square light c2" fill="#FFFFFF" height="45" stroke="none" width="45" x="110" y="290"/><rect class="square dark d2" fill="#DDDDDD" height="45" stroke="none" width="45" x="155" y="290"/><rect class="square light e2" fill="#FFFFFF" height="45" stroke="none" width="45" x="200" y="290"/><rect class="square dark f2" fill="#DDDDDD" height="45" stroke="none" width="45" x="245" y="290"/><rect class="square light g2" fill="#FFFFFF" height="45" stroke="none" width="45" x="290" y="290"/><rect class="square dark h2" fill="#DDDDDD" height="45" stroke="none" width="45" x="335" y="290"/><rect class="square dark a3" fill="#DDDDDD" height="45" stroke="none" width="45" x="20" y="245"/><rect class="square light b3" fill="#FFFFFF" height="45" stroke="none" width="45" x="65" y="245"/><rect class="square dark c3" fill="#DDDDDD" height="45" stroke="none" width="45" x="110" y="245"/><rect class="square light d3" fill="#FFFFFF" height="45" stroke="none" width="45" x="155" y="245"/><rect class="square dark e3" fill="#DDDDDD" height="45" stroke="none" width="45" x="200" y="245"/><rect class="square light f3" fill="#FFFFFF" height="45" stroke="none" width="45" x="245" y="245"/><rect class="square dark g3" fill="#DDDDDD" height="45" stroke="none" width="45" x="290" y="245"/><rect class="square light h3" fill="#FFFFFF" height="45" stroke="none" width="45" x="335" y="245"/><rect class="square light a4" fill="#FFFFFF" height="45" stroke="none" width="45" x="20" y="200"/><rect class="square dark b4" fill="#DDDDDD" height="45" stroke="none" width="45" x="65" y="200"/><rect class="square light c4" fill="#FFFFFF" height="45" stroke="none" width="45" x="110" y="200"/><rect class="square dark d4" fill="#DDDDDD" height="45" stroke="none" width="45" x="155" y="200"/><rect class="square light e4" fill="#FFFFFF" height="45" stroke="none" width="45" x="200" y="200"/><rect class="square dark f4" fill="#DDDDDD" height="45" stroke="none" width="45" x="245" y="200"/><rect class="square light g4" fill="#FFFFFF" height="45" stroke="none" width="45" x="290" y="200"/><rect class="square dark h4" fill="#DDDDDD" height="45" stroke="none" width="45" x="335" y="200"/><rect class="square dark a5" fill="#DDDDDD" height="45" stroke="none" width="45" x="20" y="155"/><rect class="square light b5" fill="#FFFFFF" height="45" stroke="none" width="45" x="65" y="155"/><rect class="square dark c5" fill="#DDDDDD" height="45" stroke="none" width="45" x="110" y="155"/><rect class="square light d5" fill="#FFFFFF" height="45" stroke="none" width="45" x="155" y="155"/><rect class="square dark e5" fill="#DDDDDD" height="45" stroke="none" width="45" x="200" y="155"/><rect class="square light f5" fill="#FFFFFF" height="45" stroke="none" width="45" x="245" y="155"/><rect class="square dark g5" fill="#DDDDDD" height="45" stroke="none" width="45" x="290" y="155"/><rect class="square light h5" fill="#FFFFFF" height="45" stroke="none" width="45" x="335" y="155"/><rect class="square light a6" fill="#FFFFFF" height="45" stroke="none" width="45" x="20" y="110"/><rect class="square dark b6" fill="#DDDDDD" height="45" stroke="none" width="45" x="65" y="110"/><rect class="square light c6" fill="#FFFFFF" height="45" stroke="none" width="45" x="110" y="110"/><rect class="square dark d6" fill="#DDDDDD" height="45" stroke="none" width="45" x="155" y="110"/><rect class="square light e6" fill="#FFFFFF" height="45" stroke="none" width="45" x="200" y="110"/><rect class="square dark f6" fill="#DDDDDD" height="45" stroke="none" width="45" x="245" y="110"/><rect class="square light g6" fill="#FFFFFF" height="45" stroke="none" width="45" x="290" y="110"/><rect class="square dark h6" fill="#DDDDDD" height="45" stroke="none" width="45" x="335" y="110"/><rect class="square dark a7" fill="#DDDDDD" height="45" stroke="none" width="45" x="20" y="65"/><rect class="square light b7" fill="#FFFFFF" height="45" stroke="none" width="45" x="65" y="65"/><rect class="square dark c7" fill="#DDDDDD" height="45" stroke="none" width="45" x="110" y="65"/><rect class="square light d7" fill="#FFFFFF" height="45" stroke="none" width="45" x="155" y="65"/><rect class="square dark e7" fill="#DDDDDD" height="45" stroke="none" width="45" x="200" y="65"/><rect class="square light f7" fill="#FFFFFF" height="45" stroke="none" width="45" x="245" y="65"/><rect class="square dark g7" fill="#DDDDDD" height="45" stroke="none" width="45" x="290" y="65"/><rect class="square light h7" fill="#FFFFFF" height="45" stroke="none" width="45" x="335" y="65"/><rect class="square light a8" fill="#FFFFFF" height="45" stroke="none" width="45" x="20" y="20"/><rect class="square dark b8" fill="#DDDDDD" height="45" stroke="none" width="45" x="65" y="20"/><rect class="square light c8" fill="#FFFFFF" height="45" stroke="none" width="45" x="110" y="20"/><rect class="square dark d8" fill="#DDDDDD" height="45" stroke="none" width="45" x="155" y="20"/><rect class="square light e8" fill="#FFFFFF" height="45" stroke="none" width="45" x="200" y="20"/><rect class="square dark f8" fill="#DDDDDD" height="45" stroke="none" width="45" x="245" y="20"/><rect class="square light g8" fill="#FFFFFF" height="45" stroke="none" width="45" x="290" y="20"/><rect class="square dark h8" fill="#DDDDDD" height="45" stroke="none" width="45" x="335" y="20"/><line class="arrow" opacity="0.3" stroke="#808000" stroke-linecap="butt" stroke-width="27.5" x1="222.5" x2="222.5" y1="222.5" y2="80.75"/><polygon class="arrow" fill="#808000" opacity="0.3" points="222.5,47.0 205.625,80.75 239.375,80.75"/><line class="arrow" opacity="0.3" stroke="#808000" stroke-linecap="butt" stroke-width="27.5" x1="222.5" x2="69.54683438038543" y1="222.5" y2="69.54683438038543"/><polygon class="arrow" fill="#808000" opacity="0.3" points="45.68198051533946,45.68198051533946 57.61440744786245,81.47926131290842 81.47926131290842,57.61440744786245"/><line class="arrow" opacity="0.3" stroke="#808000" stroke-linecap="butt" stroke-width="27.5" x1="222.5" x2="330.45316561961454" y1="222.5" y2="114.54683438038543"/><polygon class="arrow" fill="#808000" opacity="0.3" points="354.3180194846605,90.68198051533946 318.5207386870915,102.61440744786245 342.38559255213755,126.47926131290842"/><line class="arrow" opacity="0.3" stroke="#808000" stroke-linecap="butt" stroke-width="27.5" x1="222.5" x2="222.5" y1="222.5" y2="125.75"/><polygon class="arrow" fill="#808000" opacity="0.3" points="222.5,92.0 205.625,125.75 239.375,125.75"/><line class="arrow" opacity="0.3" stroke="#808000" stroke-linecap="butt" stroke-width="27.5" x1="222.5" x2="114.54683438038543" y1="222.5" y2="114.54683438038543"/><polygon class="arrow" fill="#808000" opacity="0.3" points="90.68198051533946,90.68198051533946 102.61440744786245,126.47926131290842 126.47926131290842,102.61440744786245"/><line class="arrow" opacity="0.3" stroke="#808000" stroke-linecap="butt" stroke-width="27.5" x1="222.5" x2="285.45316561961454" y1="222.5" y2="159.54683438038543"/><polygon class="arrow" fill="#808000" opacity="0.3" points="309.3180194846605,135.68198051533946 273.5207386870915,147.61440744786245 297.38559255213755,171.47926131290842"/><line class="arrow" opacity="0.3" stroke="#808000" stroke-linecap="butt" stroke-width="27.5" x1="222.5" x2="222.5" y1="222.5" y2="170.75"/><polygon class="arrow" fill="#808000" opacity="0.3" points="222.5,137.0 205.625,170.75 239.375,170.75"/><line class="arrow" opacity="0.3" stroke="#808000" stroke-linecap="butt" stroke-width="27.5" x1="222.5" x2="159.54683438038543" y1="222.5" y2="159.54683438038543"/><polygon class="arrow" fill="#808000" opacity="0.3" points="135.68198051533946,135.68198051533946 147.61440744786245,171.47926131290842 171.47926131290842,147.61440744786245"/><line class="arrow" opacity="0.3" stroke="#808000" stroke-linecap="butt" stroke-width="27.5" x1="222.5" x2="240.45316561961457" y1="222.5" y2="204.54683438038543"/><polygon class="arrow" fill="#808000" opacity="0.3" points="264.3180194846605,180.68198051533946 228.52073868709158,192.61440744786245 252.38559255213755,216.47926131290842"/><line class="arrow" opacity="0.3" stroke="#808000" stroke-linecap="butt" stroke-width="27.5" x1="222.5" x2="222.5" y1="222.5" y2="215.75"/><polygon class="arrow" fill="#808000" opacity="0.3" points="222.5,182.0 205.625,215.75 239.375,215.75"/><line class="arrow" opacity="0.3" stroke="#808000" stroke-linecap="butt" stroke-width="27.5" x1="222.5" x2="204.54683438038543" y1="222.5" y2="204.54683438038543"/><polygon class="arrow" fill="#808000" opacity="0.3" points="180.68198051533946,180.68198051533946 192.61440744786245,216.47926131290842 216.47926131290842,192.61440744786245"/><line class="arrow" opacity="0.3" stroke="#808000" stroke-linecap="butt" stroke-width="27.5" x1="222.5" x2="319.25" y1="222.5" y2="222.5"/><polygon class="arrow" fill="#808000" opacity="0.3" points="353.0,222.5 319.25,205.625 319.25,239.375"/><line class="arrow" opacity="0.3" stroke="#808000" stroke-linecap="butt" stroke-width="27.5" x1="222.5" x2="274.25" y1="222.5" y2="222.5"/><polygon class="arrow" fill="#808000" opacity="0.3" points="308.0,222.5 274.25,205.625 274.25,239.375"/><line class="arrow" opacity="0.3" stroke="#808000" stroke-linecap="butt" stroke-width="27.5" x1="222.5" x2="229.25" y1="222.5" y2="222.5"/><polygon class="arrow" fill="#808000" opacity="0.3" points="263.0,222.5 229.25,205.625 229.25,239.375"/><line class="arrow" opacity="0.3" stroke="#808000" stroke-linecap="butt" stroke-width="27.5" x1="222.5" x2="215.75" y1="222.5" y2="222.5"/><polygon class="arrow" fill="#808000" opacity="0.3" points="182.0,222.5 215.75,239.375 215.75,205.625"/><line class="arrow" opacity="0.3" stroke="#808000" stroke-linecap="butt" stroke-width="27.5" x1="222.5" x2="170.75" y1="222.5" y2="222.5"/><polygon class="arrow" fill="#808000" opacity="0.3" points="137.0,222.5 170.75,239.375 170.75,205.625"/><line class="arrow" opacity="0.3" stroke="#808000" stroke-linecap="butt" stroke-width="27.5" x1="222.5" x2="125.75" y1="222.5" y2="222.5"/><polygon class="arrow" fill="#808000" opacity="0.3" points="92.0,222.5 125.75,239.375 125.75,205.625"/><line class="arrow" opacity="0.3" stroke="#808000" stroke-linecap="butt" stroke-width="27.5" x1="222.5" x2="240.45316561961457" y1="222.5" y2="240.45316561961457"/><polygon class="arrow" fill="#808000" opacity="0.3" points="264.3180194846605,264.3180194846605 252.38559255213755,228.52073868709158 228.52073868709158,252.38559255213755"/><line class="arrow" opacity="0.3" stroke="#808000" stroke-linecap="butt" stroke-width="27.5" x1="222.5" x2="222.5" y1="222.5" y2="229.25"/><polygon class="arrow" fill="#808000" opacity="0.3" points="222.5,263.0 239.375,229.25 205.625,229.25"/><line class="arrow" opacity="0.3" stroke="#808000" stroke-linecap="butt" stroke-width="27.5" x1="222.5" x2="204.54683438038543" y1="222.5" y2="240.45316561961457"/><polygon class="arrow" fill="#808000" opacity="0.3" points="180.68198051533946,264.3180194846605 216.47926131290842,252.38559255213755 192.61440744786245,228.52073868709158"/><line class="arrow" opacity="0.3" stroke="#808000" stroke-linecap="butt" stroke-width="27.5" x1="222.5" x2="285.45316561961454" y1="222.5" y2="285.45316561961454"/><polygon class="arrow" fill="#808000" opacity="0.3" points="309.3180194846605,309.3180194846605 297.38559255213755,273.5207386870915 273.5207386870915,297.38559255213755"/><line class="arrow" opacity="0.3" stroke="#808000" stroke-linecap="butt" stroke-width="27.5" x1="222.5" x2="222.5" y1="222.5" y2="274.25"/><polygon class="arrow" fill="#808000" opacity="0.3" points="222.5,308.0 239.375,274.25 205.625,274.25"/><line class="arrow" opacity="0.3" stroke="#808000" stroke-linecap="butt" stroke-width="27.5" x1="222.5" x2="159.54683438038543" y1="222.5" y2="285.45316561961454"/><polygon class="arrow" fill="#808000" opacity="0.3" points="135.68198051533946,309.3180194846605 171.47926131290842,297.38559255213755 147.61440744786245,273.5207386870915"/><line class="arrow" opacity="0.3" stroke="#808000" stroke-linecap="butt" stroke-width="27.5" x1="222.5" x2="222.5" y1="222.5" y2="319.25"/><polygon class="arrow" fill="#808000" opacity="0.3" points="222.5,353.0 239.375,319.25 205.625,319.25"/><line class="arrow" opacity="0.3" stroke="#808000" stroke-linecap="butt" stroke-width="27.5" x1="222.5" x2="114.54683438038543" y1="222.5" y2="330.45316561961454"/><polygon class="arrow" fill="#808000" opacity="0.3" points="90.68198051533946,354.3180194846605 126.47926131290842,342.38559255213755 102.61440744786245,318.5207386870915"/><use transform="translate(335, 335)" xlink:href="#white-king"/><use transform="translate(245, 290)" xlink:href="#white-pawn"/><use transform="translate(290, 290)" xlink:href="#white-pawn"/><use transform="translate(20, 200)" xlink:href="#white-queen"/><use transform="translate(65, 200)" xlink:href="#white-rook"/><use transform="translate(200, 200)" xlink:href="#black-queen"/></svg>