<svg baseProfile="tiny" height="400" version="1.2" viewBox="0 0 400 400" width="400" xmlns="http://www.w3.org/2000/svg" xmlns:xlink="http://www.w3.org/1999/xlink"><defs><g class="white pawn" id="white-pawn"><path d="M22 9c-2.21 0-4 1.79-4 4 0 .89.29 1.71.78 2.38-1.95 1.12-3.28 3.21-3.28 5.62 0 2.03.94 3.84 2.41 5.03-3 1.06-7.41 5.55-7.41 13.47h23c0-7.92-4.41-12.41-7.41-13.47 1.47-1.19 2.41-3 2.41-5.03 0-2.41-1.33-4.5-3.28-5.62.49-.67.78-1.49.78-2.38 0-2.21-1.79-4-4-4z" fill="#fff" stroke="#000" stroke-linecap="round" stroke-width="1.5"/></g><g class="black pawn" id="black-pawn"><path d="M22 9c-2.21 0-4 1.79-4 4 0 .89.29 1.71.78 2.38-1.95 1.12-3.28 3.21-3.28 5.62 0 2.03.94 3.84 2.41 5.03-3 1.06-7.41 5.55-7.41 13.47h23c0-7.92-4.41-12.41-7.41-13.47 1.47-1.19 2.41-3 2.41-5.03 0-2.41-1.33-4.5-3.28-5.62.49-.67.78-1.49.78-2.38 0-2.21-1.79-4-4-4z" stroke="#000" stroke-linecap="round" stroke-width="1.5"/></g><g class="black rook" fill="#000" fill-rule="evenodd" id="black-rook" stroke="#000" stroke-linecap="round" stroke-linejoin="round" stroke-width="1.5"><path d="M9 39h27v-3H9v3zM12.5 32l1.5-2.5h17l1.5 2.5h-20zM12 36v-4h21v4H12z" stroke-linecap="butt"/><path d="M14 29.5v-13h17v13H14z" stroke-linecap="butt" stroke-linejoin="miter"/><path d="M14 16.5L11 14h23l-3 2.5H14zM11 14V9h4v2h5V9h5v2h5V9h4v5H11z" stroke-linecap="butt"/><path d="M12 35.5h21M13 31.5h19M14 29.5h17M14 16.5h17M11 14h23" fill="none" stroke="#fff" stroke-linejoin="miter" stroke-width="1"/></g></defs><rect class="square dark a1" fill="#DDDDDD" height="45" stroke="none" width="45" x="20" y="335"/><rect class="square light b1" fill="#FFFFFF" height="45" stroke="none" width="45" x="65" y="335"/><rect class="square dark c1" fill="#DDDDDD" height="45" stroke="none" width="45" x="110" y="335"/><rect class="square light d1" fill="#FFFFFF" height="45" stroke="none" width="45" x="155" y="335"/><rect class="square dark e1" fill="#DDDDDD" height="45" stroke="none" width="45" x="200" y="335"/><rect class="square light f1" fill="#FFFFFF" height="45" stroke="none" width="45" x="245" y="335"/><rect class="square dark g1" fill="#DDDDDD" height="45" stroke="none" width="45" x="290" y="335"/><rect class="square light h1" fill="#FFFFFF" height="45" stroke="none" width="45" x="335" y="335"/><rect class="square light a2" fill="#FFFFFF" height="45" stroke="none" width="45" x="20" y="290"/><rect class="square dark b2" fill="#DDDDDD" height="45" stroke="none" width="45" x="65" y="290"/><rect class="square light c2" fill="#FFFFFF" height="45" stroke="none" width="45" x="110" y="290"/><rect class="square dark d2" fill="#DDDDDD" height="45" stroke="none" width="45" x="155" y="290"/><rect class="square light e2" fill="#FFFFFF" height="45" stroke="none" width="45" x="200" y="290"/><rect class="square dark f2" fill="#DDDDDD" height="45" stroke="none" width="45" x="245" y="290"/><rect class="square light g2" fill="#FFFFFF" height="45" stroke="none" width="45" x="290" y="290"/><rect class="square dark h2" fill="#DDDDDD" height="45" stroke="none" width="45" x="335" y="290"/><rect class="square dark a3" fill="#DDDDDD" height="45" stroke="none" width="45" x="20" y="245"/><rect class="square light b3" fill="#FFFFFF" height="45" stroke="none" width="45" x="65" y="245"/><rect class="square dark c3" fill="#DDDDDD" height="45" stroke="none" width="45" x="110" y="245"/><rect class="square light d3" fill="#FFFFFF" height="45" stroke="none" width="45" x="155" y="245"/><rect class="square dark e3" fill="#DDDDDD" height="45" stroke="none" width="45" x="200" y="245"/><rect class="square light f3" fill="#FFFFFF" height="45" stroke="none" width="45" x="245" y="245"/><rect class="square dark g3" fill="#DDDDDD" height="45" stroke="none" width="45" x="290" y="245"/><rect class="square light h3" fill="#FFFFFF" height="45" stroke="none" width="45" x="335" y="245"/><rect class="square light a4" fill="#FFFFFF" height="45" stroke="none" width="45" x="20" y="200"/><rect class="square dark b4" fill="#DDDDDD" height="45" stroke="none" width="45" x="65" y="200"/><rect class="square light c4" fill="#FFFFFF" height="45" stroke="none" width="45" x="110" y="200"/><rect class="square dark d4" fill="#DDDDDD" height="45" stroke="none" width="45" x="155" y="200"/><rect class="square light e4" fill="#FFFFFF" height="45" stroke="none" width="45" x="200" y="200"/><rect class="square dark f4" fill="#DDDDDD" height="45" stroke="none" width="45" x="245" y="200"/><rect class="square light g4" fill="#FFFFFF" height="45" stroke="none" width="45" x="290" y="200"/><rect class="square dark h4" fill="#DDDDDD" height="45" stroke="none" width="45" x="335" y="200"/><rect class="square dark a5" fill="#DDDDDD" height="45" stroke="none" width="45" x="20" y="155"/><rect class="square light b5" fill="#FFFFFF" height="45" stroke="none" width="45" x="65" y="155"/><rect class="square dark c5" fill="#DDDDDD" height="45" stroke="none" width="45" x="110" y="155"/><rect class="square light d5" fill="#FFFFFF" height="45" stroke="none" width="45" x="155" y="155"/><rect class="square dark e5" fill="#DDDDDD" height="45" stroke="none" width="45" x="200" y="155"/><rect class="square light f5" fill="#FFFFFF" height="45" stroke="none" width="45" x="245" y="155"/><rect class="square dark g5" fill="#DDDDDD" height="45" stroke="none" width="45" x="290" y="155"/><rect class="square light h5" fill="#FFFFFF" height="45" stroke="none" width="45" x="335" y="155"/><rect class="square light a6" fill="#FFFFFF" height="45" stroke="none" width="45" x="20" y="110"/><rect class="square dark b6" fill="#DDDDDD" height="45" stroke="none" width="45" x="65" y="110"/><rect class="square light c6" fill="#FFFFFF" height="45" stroke="none" width="45" x="110" y="110"/><rect class="square dark d6" fill="#DDDDDD" height="45" stroke="none" width="45" x="155" y="110"/><rect class="square light e6" fill="#FFFFFF" height="45" stroke="none" width="45" x="200" y="110"/><rect class="square dark f6" fill="#DDDDDD" height="45" stroke="none" width="45" x="245" y="110"/><rect class="square light g6" fill="#FFFFFF" height="45" stroke="none" width="45" x="290" y="110"/><rect class="square dark h6" fill="#DDDDDD" height="45" stroke="none" width="45" x="335" y="110"/><rect class="square dark a7" fill="#DDDDDD" height="45" stroke="none" width="45" x="20" y="65"/><rect class="square light b7" fill="#FFFFFF" height="45" stroke="none" width="45" x="65" y="65"/><rect class="square dark c7" fill="#DDDDDD" height="45" stroke="none" width="45" x="110" y="65"/><rect class="square light d7" fill="#FFFFFF" height="45" stroke="none" width="45" x="155" y="65"/><rect class="square dark e7" fill="#DDDDDD" height="45" stroke="none" width="45" x="200" y="65"/><rect class="square light f7" fill="#FFFFFF" height="45" stroke="none" width="45" x="245" y="65"/><rect class="square dark g7" fill="#DDDDDD" height="45" stroke="none" width="45" x="290" y="65"/><rect class="square light h7" fill="#FFFFFF" height="45" stroke="none" width="45" x="335" y="65"/><rect class="square light a8" fill="#FFFFFF" height="45" stroke="none" width="45" x="20" y="20"/><rect class="square dark b8" fill="#DDDDDD" height="45" stroke="none" width="45" x="65" y="20"/><rect class="square light c8" fill="#FFFFFF" height="45" stroke="none" width="45" x="110" y="20"/><rect class="square dark d8" fill="#DDDDDD" height="45" stroke="none" width="45" x="155" y="20"/><rect class="square light e8" fill="#FFFFFF" height="45" stroke="none" width="45" x="200" y="20"/><rect class="square dark f8" fill="#DDDDDD" height="45" stroke="none" width="45" x="245" y="20"/><rect class="square light g8" fill="#FFFFFF" height="45" stroke="none" width="45" x="290" y="20"/><rect class="square dark h8" fill="#DDDDDD" height="45" stroke="none" width="45" x="335" y="20"/><line class="arrow" opacity="0.3" stroke="#808000" stroke-linecap="butt" stroke-width="27.5" x1="267.5" x2="249.54683438038543" y1="177.5" y2="159.54683438038543"/><polygon class="arrow" fill="#808000" opacity="0.3" points="225.68198051533946,135.68198051533946 237.61440744786245,171.47926131290842 261.4792613129084,147.61440744786245"/><line class="arrow" opacity="0.3" stroke="#808000" stroke-linecap="butt" stroke-width="27.5" x1="177.5" x2="195.45316561961457" y1="177.5" y2="159.54683438038543"/><polygon class="arrow" fill="#808000" opacity="0.3" points="219.31801948466054,135.68198051533946 183.52073868709158,147.61440744786245 207.38559255213755,171.47926131290842"/><line class="arrow" opacity="0.3" stroke="#808000" stroke-linecap="butt" stroke-width="27.5" x1="177.5" x2="159.54683438038543" y1="177.5" y2="159.54683438038543"/><polygon class="arrow" fill="#808000" opacity="0.3" points="135.68198051533946,135.68198051533946 147.61440744786245,171.47926131290842 171.47926131290842,147.61440744786245"/><line class="arrow" opacity="0.3" stroke="#808000" stroke-linecap="butt" stroke-width="27.5" x1="222.5" x2="222.5" y1="87.5" y2="80.75"/><polygon class="arrow" fill="#808000" opacity="0.3" points="222.5,47.0 205.625,80.75 239.375,80.75"/><line class="arrow" opacity="0.3" stroke="#808000" stroke-linecap="butt" stroke-width="27.5" x1="222.5" x2="222.5" y1="87.5" y2="80.75"/><polygon class="arrow" fill="#808000" opacity="0.3" points="222.5,47.0 205.625,80.75 239.375,80.75"/><line class="arrow" opacity="0.3" stroke="#808000" stroke-linecap="butt" stroke-width="27.5" x1="222.5" x2="222.5" y1="87.5" y2="80.75"/><polygon class="arrow" fill="#808000" opacity="0.3" points="222.5,47.0 205.625,80.75 239.375,80.75"/><line class="arrow" opacity="0.3" stroke="#808000" stroke-linecap="butt" stroke-width="27.5" x1="222.5" x2="222.5" y1="87.5" y2="80.75"/><polygon class="arrow" fill="#808000" opacity="0.3" points="222.5,47.0 205.625,80.75 239.375,80.75"/><line class="arrow" opacity="0.3" stroke="#808000" stroke-linecap="butt" stroke-width="27.5" x1="177.5" x2="177.5" y1="177.5" y2="170.75"/><polygon class="arrow" fill="#808000" opacity="0.3" points="177.5,137.0 160.625,170.75 194.375,170.75"/><line class="arrow" opacity="0.3" stroke="#808000" stroke-linecap="butt" stroke-width="27.5" x1="132.5" x2="132.5" y1="267.5" y2="260.75"/><polygon class="arrow" fill="#808000" opacity="0.3" points="132.5,227.0 115.625,260.75 149.375,260.75"/><line class="arrow" opacity="0.3" stroke="#808000" stroke-linecap="butt" stroke-width="27.5" x1="87.5" x2="87.5" y1="312.5" y2="305.75"/><polygon class="arrow" fill="#808000" opacity="0.3" points="87.5,272.0 70.625,305.75 104.375,305.75"/><line class="arrow" opacity="0.3" stroke="#808000" stroke-linecap="butt" stroke-width="27.5" x1="87.5" x2="87.5" y1="312.5" y2="260.75"/><polygon class="arrow" fill="#808000" opacity="0.3" points="87.5,227.0 70.625,260.75 104.375,260.75"/><use transform="translate(65, 290)" xlink:href="#white-pawn"/><use transform="translate(110, 245)" xlink:href="#white-pawn"/><use transform="translate(335, 245)" xlink:href="#white-pawn"/><use transform="translate(335, 200)" xlink:href="#black-pawn"/><use transform="translate(155, 155)" xlink:href="#white-pawn"/><use transform="translate(245, 155)" xlink:href="#white-pawn"/><use transform="translate(110, 110)" xlink:href="#black-pawn"/><use transform="translate(200, 110)" xlink:href="#black-rook"/><use transform="translate(245, 110)" xlink:href="#black-pawn"/><use transform="translate(65, 65)" xlink:href="#black-pawn"/><use transform="translate(200, 65)" xlink:href="#white-pawn"/></svg>